<?xml version="1.0" encoding="utf-8"?>
<!-- Generator: Adobe Illustrator 18.1.0, SVG Export Plug-In . SVG Version: 6.00 Build 0)  -->
<!DOCTYPE svg PUBLIC "-//W3C//DTD SVG 1.1//EN" "http://www.w3.org/Graphics/SVG/1.1/DTD/svg11.dtd">
<svg version="1.1" id="Layer_1" xmlns="http://www.w3.org/2000/svg" xmlns:xlink="http://www.w3.org/1999/xlink" x="0px" y="0px"
	 viewBox="0 0 334.5 82.5" enable-background="new 0 0 334.5 82.5" xml:space="preserve">
<g>
	<rect x="117.7" y="5.1" fill="none" width="71" height="71.5"/>
	<g>
		<polygon fill="#F99D1C" stroke="#D2232A" stroke-width="0.4719" points="151,30.1 153.1,5.1 155.2,30.1 		"/>
		<polygon fill="#F99D1C" stroke="#D2232A" stroke-width="0.4719" points="142.7,39.2 117.7,41.3 142.7,43.5 		"/>
		<polygon fill="#F99D1C" stroke="#D2232A" stroke-width="0.4719" points="163.7,43.4 188.7,41.2 163.7,39.1 		"/>
		<polygon fill="#F99D1C" stroke="#D2232A" stroke-width="0.4719" points="150.6,51.6 152.7,76.6 154.9,51.6 		"/>
		<g>
			<polygon fill="#F99D1C" stroke="#D2232A" stroke-width="0.4719" points="143.7,35.2 127.2,16.3 146.7,32.1 			"/>
			<polygon fill="#F99D1C" stroke="#D2232A" stroke-width="0.4719" points="144.5,47.4 128.7,66.9 147.6,50.4 			"/>
			<polygon fill="#F99D1C" stroke="#D2232A" stroke-width="0.4719" points="162,35.2 177.9,15.7 159,32.2 			"/>
			<polygon fill="#F99D1C" stroke="#D2232A" stroke-width="0.4719" points="158.9,50.3 178.4,66.2 161.9,47.3 			"/>
		</g>
		<g>
			<polygon fill="#F3C727" stroke="#D2232A" stroke-width="0.4719" points="161.8,34.5 180.2,31.1 163.9,40.3 			"/>
			<polygon fill="#F3C727" stroke="#D2232A" stroke-width="0.4719" points="160.1,50 163.5,68.3 154.3,52.1 			"/>
			<polygon fill="#F3C727" stroke="#D2232A" stroke-width="0.4719" points="142.3,43.1 127.1,53.8 145,48.6 			"/>
			<polygon fill="#F3C727" stroke="#D2232A" stroke-width="0.4719" points="151.8,30.4 141.1,15.1 146.3,33 			"/>
		</g>
		<g>
			<polygon fill="#F3C727" stroke="#D2232A" stroke-width="0.4719" points="164,42.6 179,53.7 161.2,48.1 			"/>
			<polygon fill="#F3C727" stroke="#D2232A" stroke-width="0.4719" points="151.6,52 140.5,67 146.1,49.2 			"/>
			<polygon fill="#F3C727" stroke="#D2232A" stroke-width="0.4719" points="144.4,34.3 126.1,30.6 142.2,40.1 			"/>
			<polygon fill="#F3C727" stroke="#D2232A" stroke-width="0.4719" points="160.1,32.5 163.9,14.2 154.4,30.3 			"/>
		</g>
		<circle fill="#EF4123" stroke="#D2232A" stroke-width="0.4719" cx="153.1" cy="41" r="10.7"/>
	</g>
</g>
<g>
	<rect x="26.1" y="24.5" fill="none" width="35.5" height="35.8"/>
	<g>
		<polygon fill="#F99D1C" stroke="#D2232A" stroke-width="0.4719" points="42.7,37 43.8,24.5 44.8,37 		"/>
		<polygon fill="#F99D1C" stroke="#D2232A" stroke-width="0.4719" points="38.6,41.6 26.1,42.6 38.6,43.7 		"/>
		<polygon fill="#F99D1C" stroke="#D2232A" stroke-width="0.4719" points="49.1,43.6 61.6,42.6 49.1,41.5 		"/>
		<polygon fill="#F99D1C" stroke="#D2232A" stroke-width="0.4719" points="42.5,47.7 43.6,60.3 44.6,47.7 		"/>
		<g>
			<polygon fill="#F99D1C" stroke="#D2232A" stroke-width="0.4719" points="39.1,39.5 30.8,30.1 40.6,38 			"/>
			<polygon fill="#F99D1C" stroke="#D2232A" stroke-width="0.4719" points="39.5,45.7 31.6,55.4 41,47.1 			"/>
			<polygon fill="#F99D1C" stroke="#D2232A" stroke-width="0.4719" points="48.2,39.5 56.2,29.8 46.7,38.1 			"/>
			<polygon fill="#F99D1C" stroke="#D2232A" stroke-width="0.4719" points="46.7,47.1 56.4,55 48.2,45.6 			"/>
		</g>
		<g>
			<polygon fill="#F3C727" stroke="#D2232A" stroke-width="0.4719" points="48.1,39.2 57.3,37.5 49.2,42.1 			"/>
			<polygon fill="#F3C727" stroke="#D2232A" stroke-width="0.4719" points="47.3,46.9 49,56.1 44.4,48 			"/>
			<polygon fill="#F3C727" stroke="#D2232A" stroke-width="0.4719" points="38.4,43.5 30.8,48.8 39.7,46.2 			"/>
			<polygon fill="#F3C727" stroke="#D2232A" stroke-width="0.4719" points="43.1,37.1 37.8,29.5 40.4,38.5 			"/>
		</g>
		<g>
			<polygon fill="#F3C727" stroke="#D2232A" stroke-width="0.4719" points="49.2,43.3 56.7,48.8 47.8,46 			"/>
			<polygon fill="#F3C727" stroke="#D2232A" stroke-width="0.4719" points="43,47.9 37.5,55.5 40.3,46.6 			"/>
			<polygon fill="#F3C727" stroke="#D2232A" stroke-width="0.4719" points="39.4,39.1 30.3,37.2 38.3,42 			"/>
			<polygon fill="#F3C727" stroke="#D2232A" stroke-width="0.4719" points="47.3,38.2 49.2,29.1 44.4,37.1 			"/>
		</g>
		<circle fill="#FFFFFF" stroke="#D1232A" stroke-width="0.4719" cx="43.8" cy="42.4" r="5.3"/>
	</g>
</g>
<g>
	<rect x="234" y="6.8" fill="none" width="61.4" height="63"/>
	<g>
		<g>
			<circle fill="#FFFFFF" stroke="#FADB2A" stroke-miterlimit="10" cx="239.3" cy="18.2" r="3.2"/>
			<path fill="#FFFFFF" stroke="#ED258B" stroke-miterlimit="10" d="M280.6,17.6c1.4,1,3.4,0.7,4.5-0.7c1-1.4,0.7-3.4-0.7-4.5
				c-1.4-1-3.4-0.7-4.5,0.7C278.9,14.5,279.2,16.5,280.6,17.6z"/>
			<path fill="#FFFFFF" stroke="#00AB4E" stroke-miterlimit="10" d="M288.3,44.6c-0.5,1.7,0.4,3.5,2.1,4c1.7,0.5,3.5-0.4,4-2
				c0.5-1.7-0.4-3.5-2-4C290.6,42,288.8,42.9,288.3,44.6z"/>
			<path fill="none" stroke="#3B75BB" stroke-miterlimit="10" d="M283.3,27.1c-1,1.4-0.7,3.4,0.7,4.5c1.4,1,3.4,0.7,4.5-0.7
				c1-1.4,0.7-3.4-0.7-4.5C286.4,25.4,284.4,25.7,283.3,27.1z"/>
			<path fill="none" stroke="#F08731" stroke-miterlimit="10" d="M276.9,59.5c-1.4,1-1.7,3-0.7,4.5c1,1.4,3,1.7,4.5,0.7
				c1.4-1,1.7-3,0.7-4.5C280.3,58.8,278.3,58.5,276.9,59.5z"/>
			<path fill="none" stroke="#C6322D" stroke-miterlimit="10" d="M250.6,20.7c-1.7,0.5-2.6,2.3-2.1,4c0.5,1.7,2.3,2.6,4,2
				c1.7-0.5,2.6-2.3,2.1-4C254.1,21,252.3,20.1,250.6,20.7z"/>
			<path fill="none" stroke="#FADB2A" stroke-miterlimit="10" d="M261.6,38.3c-1.8,0-3.2,1.4-3.2,3.2c0,1.8,1.4,3.2,3.2,3.2
				c1.8,0,3.2-1.4,3.2-3.2C264.8,39.8,263.4,38.3,261.6,38.3z"/>
			<path fill="#FFFFFF" stroke="#AC60A6" stroke-miterlimit="10" d="M251.7,55.1c-1.4-1-3.4-0.7-4.5,0.7c-1,1.4-0.7,3.4,0.7,4.5
				c1.4,1,3.4,0.7,4.5-0.7C253.5,58.2,253.2,56.2,251.7,55.1z"/>
			<path fill="#FFFFFF" stroke="#EC2991" stroke-miterlimit="10" d="M237.3,62.2c-1-1.4-3-1.7-4.5-0.7c-1.4,1-1.7,3-0.7,4.5
				c1,1.4,3,1.7,4.5,0.7C238,65.6,238.4,63.6,237.3,62.2z"/>
			<path fill="#FFFFFF" stroke="#77C047" stroke-miterlimit="10" d="M242.6,51.6c-0.5-1.7-2.3-2.6-4-2.1c-1.7,0.5-2.6,2.3-2.1,4
				c0.5,1.7,2.3,2.6,4,2.1C242.2,55.1,243.1,53.3,242.6,51.6z"/>
			<circle fill="#FFFFFF" stroke="#574F95" stroke-miterlimit="10" cx="238.1" cy="29.4" r="3.2"/>
			<circle fill="#FFFFFF" stroke="#ECA021" stroke-miterlimit="10" cx="256.6" cy="10.9" r="3.2"/>
		</g>
		<circle fill="#FFFFFF" stroke="#EC60A3" stroke-width="0.5" stroke-miterlimit="10" cx="276.3" cy="23.4" r="2"/>
		<circle fill="#FFFFFF" stroke="#574F95" stroke-width="0.5" stroke-miterlimit="10" cx="283.9" cy="38.3" r="2"/>
		<path fill="#FFFFFF" stroke="#00AB4E" stroke-width="0.5" stroke-miterlimit="10" d="M270.9,48.3c-0.3,1.1,0.2,2.2,1.3,2.6
			c1.1,0.3,2.2-0.2,2.6-1.3c0.3-1.1-0.2-2.2-1.3-2.6C272.4,46.7,271.3,47.3,270.9,48.3z"/>
		<circle fill="none" stroke="#3B75BB" stroke-width="0.5" stroke-miterlimit="10" cx="256.1" cy="32.7" r="2"/>
		<path fill="none" stroke="#F08731" stroke-width="0.5" stroke-miterlimit="10" d="M280.1,51.6c-0.9,0.7-1.1,1.9-0.5,2.8
			c0.7,0.9,1.9,1.1,2.8,0.5c0.9-0.7,1.1-1.9,0.5-2.8C282.3,51.1,281.1,50.9,280.1,51.6z"/>
		<path fill="none" stroke="#C6322D" stroke-width="0.5" stroke-miterlimit="10" d="M270.3,37.7c-1.1,0.3-1.7,1.5-1.3,2.6
			c0.3,1.1,1.5,1.7,2.6,1.3c1.1-0.3,1.7-1.5,1.3-2.6C272.5,38,271.4,37.4,270.3,37.7z"/>
		<path fill="none" stroke="#FADB2A" stroke-width="0.5" stroke-miterlimit="10" d="M265.5,54.7c-1.1,0-2,0.9-2,2c0,1.1,0.9,2,2,2
			c1.1,0,2-0.9,2-2S266.6,54.7,265.5,54.7z"/>
		<circle fill="#FFFFFF" stroke="#00A995" stroke-width="0.5" stroke-miterlimit="10" cx="259.8" cy="55.8" r="2"/>
		<circle fill="#FFFFFF" stroke="#EC2991" stroke-width="0.5" stroke-miterlimit="10" cx="250.6" cy="49.1" r="2"/>
		<circle fill="#FFFFFF" stroke="#77C047" stroke-width="0.5" stroke-miterlimit="10" cx="245.7" cy="38" r="2"/>
		<circle fill="#FFFFFF" stroke="#ED7140" stroke-width="0.5" stroke-miterlimit="10" cx="269.8" cy="31.1" r="2"/>
		<circle fill="#FFFFFF" stroke="#ECA021" stroke-width="0.5" stroke-miterlimit="10" cx="259.8" cy="20.8" r="2"/>
		<circle fill="#FFFFFF" stroke="#FADB2A" stroke-width="0.5" stroke-miterlimit="10" cx="271.6" cy="20.5" r="2"/>
	</g>
</g>
</svg>
