<?xml version="1.0" encoding="utf-8"?>
<!-- Generator: Adobe Illustrator 18.1.0, SVG Export Plug-In . SVG Version: 6.00 Build 0)  -->
<!DOCTYPE svg PUBLIC "-//W3C//DTD SVG 1.1//EN" "http://www.w3.org/Graphics/SVG/1.1/DTD/svg11.dtd">
<svg version="1.1" xmlns="http://www.w3.org/2000/svg" xmlns:xlink="http://www.w3.org/1999/xlink" x="0px" y="0px"
	 viewBox="0 0 84.3 82.5" enable-background="new 0 0 84.3 82.5" xml:space="preserve">
<g id="Layer_1" display="none">
	<g display="inline">
		<rect x="24.8" y="24.5" fill="none" width="35.5" height="35.8"/>
		<g>
			<polygon fill="#F99D1C" stroke="#D2232A" stroke-width="0.4719" points="41.4,37 42.5,24.5 43.5,37 			"/>
			<polygon fill="#F99D1C" stroke="#D2232A" stroke-width="0.4719" points="37.3,41.6 24.8,42.6 37.3,43.7 			"/>
			<polygon fill="#F99D1C" stroke="#D2232A" stroke-width="0.4719" points="47.8,43.6 60.3,42.6 47.8,41.5 			"/>
			<polygon fill="#F99D1C" stroke="#D2232A" stroke-width="0.4719" points="41.2,47.7 42.3,60.3 43.4,47.7 			"/>
			<g>
				<polygon fill="#F99D1C" stroke="#D2232A" stroke-width="0.4719" points="37.8,39.5 29.5,30.1 39.3,38 				"/>
				<polygon fill="#F99D1C" stroke="#D2232A" stroke-width="0.4719" points="38.2,45.7 30.3,55.4 39.7,47.1 				"/>
				<polygon fill="#F99D1C" stroke="#D2232A" stroke-width="0.4719" points="47,39.5 54.9,29.8 45.4,38.1 				"/>
				<polygon fill="#F99D1C" stroke="#D2232A" stroke-width="0.4719" points="45.4,47.1 55.1,55 46.9,45.6 				"/>
			</g>
			<g>
				<polygon fill="#F3C727" stroke="#D2232A" stroke-width="0.4719" points="46.8,39.2 56,37.5 47.9,42.1 				"/>
				<polygon fill="#F3C727" stroke="#D2232A" stroke-width="0.4719" points="46,46.9 47.7,56.1 43.1,48 				"/>
				<polygon fill="#F3C727" stroke="#D2232A" stroke-width="0.4719" points="37.1,43.5 29.5,48.8 38.4,46.2 				"/>
				<polygon fill="#F3C727" stroke="#D2232A" stroke-width="0.4719" points="41.8,37.1 36.5,29.5 39.1,38.5 				"/>
			</g>
			<g>
				<polygon fill="#F3C727" stroke="#D2232A" stroke-width="0.4719" points="47.9,43.3 55.5,48.8 46.5,46 				"/>
				<polygon fill="#F3C727" stroke="#D2232A" stroke-width="0.4719" points="41.7,47.9 36.2,55.5 39,46.6 				"/>
				<polygon fill="#F3C727" stroke="#D2232A" stroke-width="0.4719" points="38.1,39.1 29,37.2 37,42 				"/>
				<polygon fill="#F3C727" stroke="#D2232A" stroke-width="0.4719" points="46,38.2 47.9,29.1 43.1,37.1 				"/>
			</g>
			<circle fill="#FFFFFF" stroke="#D1232A" stroke-width="0.4719" cx="42.5" cy="42.4" r="5.3"/>
		</g>
	</g>
</g>
<g id="Layer_2">
	<g>
		<rect x="7.9" y="5.3" fill="none" width="71" height="71.5"/>
		<g>
			<polygon fill="#F99D1C" stroke="#D2232A" stroke-width="0.4719" points="41.2,30.3 43.3,5.3 45.4,30.3 			"/>
			<polygon fill="#F99D1C" stroke="#D2232A" stroke-width="0.4719" points="32.9,39.4 7.9,41.5 32.9,43.7 			"/>
			<polygon fill="#F99D1C" stroke="#D2232A" stroke-width="0.4719" points="53.9,43.6 78.9,41.4 53.9,39.3 			"/>
			<polygon fill="#F99D1C" stroke="#D2232A" stroke-width="0.4719" points="40.8,51.8 42.9,76.8 45.1,51.8 			"/>
			<g>
				<polygon fill="#F99D1C" stroke="#D2232A" stroke-width="0.4719" points="33.9,35.4 17.4,16.5 36.9,32.3 				"/>
				<polygon fill="#F99D1C" stroke="#D2232A" stroke-width="0.4719" points="34.7,47.6 18.9,67.1 37.8,50.6 				"/>
				<polygon fill="#F99D1C" stroke="#D2232A" stroke-width="0.4719" points="52.3,35.4 68.1,15.9 49.2,32.4 				"/>
				<polygon fill="#F99D1C" stroke="#D2232A" stroke-width="0.4719" points="49.1,50.5 68.6,66.4 52.1,47.5 				"/>
			</g>
			<g>
				<polygon fill="#F3C727" stroke="#D2232A" stroke-width="0.4719" points="52,34.7 70.4,31.3 54.1,40.5 				"/>
				<polygon fill="#F3C727" stroke="#D2232A" stroke-width="0.4719" points="50.3,50.2 53.7,68.5 44.5,52.3 				"/>
				<polygon fill="#F3C727" stroke="#D2232A" stroke-width="0.4719" points="32.6,43.3 17.3,54 35.2,48.8 				"/>
				<polygon fill="#F3C727" stroke="#D2232A" stroke-width="0.4719" points="42,30.6 31.3,15.3 36.5,33.2 				"/>
			</g>
			<g>
				<polygon fill="#F3C727" stroke="#D2232A" stroke-width="0.4719" points="54.2,42.8 69.2,53.9 51.4,48.3 				"/>
				<polygon fill="#F3C727" stroke="#D2232A" stroke-width="0.4719" points="41.8,52.2 30.7,67.2 36.3,49.4 				"/>
				<polygon fill="#F3C727" stroke="#D2232A" stroke-width="0.4719" points="34.6,34.5 16.3,30.8 32.4,40.3 				"/>
				<polygon fill="#F3C727" stroke="#D2232A" stroke-width="0.4719" points="50.3,32.7 54.1,14.4 44.6,30.5 				"/>
			</g>
			<circle fill="#EF4123" stroke="#D2232A" stroke-width="0.4719" cx="43.3" cy="41.2" r="10.7"/>
		</g>
	</g>
</g>
<g id="Layer_3" display="none">
	<g display="inline">
		<rect x="13" y="9.8" fill="none" width="61.4" height="63"/>
		<g>
			<g>
				<circle fill="#FFFFFF" stroke="#FADB2A" stroke-miterlimit="10" cx="18.3" cy="21.2" r="3.2"/>
				<path fill="#FFFFFF" stroke="#ED258B" stroke-miterlimit="10" d="M59.6,20.6c1.4,1,3.4,0.7,4.5-0.7c1-1.4,0.7-3.4-0.7-4.5
					c-1.4-1-3.4-0.7-4.5,0.7C57.9,17.5,58.2,19.5,59.6,20.6z"/>
				<path fill="#FFFFFF" stroke="#00AB4E" stroke-miterlimit="10" d="M67.3,47.6c-0.5,1.7,0.4,3.5,2.1,4c1.7,0.5,3.5-0.4,4-2
					c0.5-1.7-0.4-3.5-2-4C69.6,45,67.8,45.9,67.3,47.6z"/>
				<path fill="none" stroke="#3B75BB" stroke-miterlimit="10" d="M62.3,30.1c-1,1.4-0.7,3.4,0.7,4.5c1.4,1,3.4,0.7,4.5-0.7
					c1-1.4,0.7-3.4-0.7-4.5C65.4,28.4,63.4,28.7,62.3,30.1z"/>
				<path fill="none" stroke="#F08731" stroke-miterlimit="10" d="M55.9,62.5c-1.4,1-1.7,3-0.7,4.5c1,1.4,3,1.7,4.5,0.7
					c1.4-1,1.7-3,0.7-4.5C59.3,61.8,57.3,61.5,55.9,62.5z"/>
				<path fill="none" stroke="#C6322D" stroke-miterlimit="10" d="M29.6,23.7c-1.7,0.5-2.6,2.3-2.1,4c0.5,1.7,2.3,2.6,4,2
					c1.7-0.5,2.6-2.3,2.1-4C33.1,24,31.3,23.1,29.6,23.7z"/>
				<path fill="none" stroke="#FADB2A" stroke-miterlimit="10" d="M40.6,41.3c-1.8,0-3.2,1.4-3.2,3.2c0,1.8,1.4,3.2,3.2,3.2
					c1.8,0,3.2-1.4,3.2-3.2C43.8,42.8,42.4,41.3,40.6,41.3z"/>
				<path fill="#FFFFFF" stroke="#AC60A6" stroke-miterlimit="10" d="M30.7,58.1c-1.4-1-3.4-0.7-4.5,0.7c-1,1.4-0.7,3.4,0.7,4.5
					c1.4,1,3.4,0.7,4.5-0.7C32.5,61.2,32.2,59.2,30.7,58.1z"/>
				<path fill="#FFFFFF" stroke="#EC2991" stroke-miterlimit="10" d="M16.3,65.2c-1-1.4-3-1.7-4.5-0.7c-1.4,1-1.7,3-0.7,4.5
					c1,1.4,3,1.7,4.5,0.7C17,68.6,17.4,66.6,16.3,65.2z"/>
				<path fill="#FFFFFF" stroke="#77C047" stroke-miterlimit="10" d="M21.6,54.6c-0.5-1.7-2.3-2.6-4-2.1c-1.7,0.5-2.6,2.3-2.1,4
					c0.5,1.7,2.3,2.6,4,2.1C21.2,58.1,22.1,56.3,21.6,54.6z"/>
				<circle fill="#FFFFFF" stroke="#574F95" stroke-miterlimit="10" cx="17.1" cy="32.4" r="3.2"/>
				<circle fill="#FFFFFF" stroke="#ECA021" stroke-miterlimit="10" cx="35.6" cy="13.9" r="3.2"/>
			</g>
			<circle fill="#FFFFFF" stroke="#EC60A3" stroke-width="0.5" stroke-miterlimit="10" cx="55.3" cy="26.4" r="2"/>
			<circle fill="#FFFFFF" stroke="#574F95" stroke-width="0.5" stroke-miterlimit="10" cx="62.9" cy="41.3" r="2"/>
			<path fill="#FFFFFF" stroke="#00AB4E" stroke-width="0.5" stroke-miterlimit="10" d="M49.9,51.3c-0.3,1.1,0.2,2.2,1.3,2.6
				c1.1,0.3,2.2-0.2,2.6-1.3c0.3-1.1-0.2-2.2-1.3-2.6C51.4,49.7,50.3,50.3,49.9,51.3z"/>
			<circle fill="none" stroke="#3B75BB" stroke-width="0.5" stroke-miterlimit="10" cx="35.1" cy="35.7" r="2"/>
			<path fill="none" stroke="#F08731" stroke-width="0.5" stroke-miterlimit="10" d="M59.1,54.6c-0.9,0.7-1.1,1.9-0.5,2.8
				c0.7,0.9,1.9,1.1,2.8,0.5c0.9-0.7,1.1-1.9,0.5-2.8C61.3,54.1,60.1,53.9,59.1,54.6z"/>
			<path fill="none" stroke="#C6322D" stroke-width="0.5" stroke-miterlimit="10" d="M49.3,40.7c-1.1,0.3-1.7,1.5-1.3,2.6
				c0.3,1.1,1.5,1.7,2.6,1.3c1.1-0.3,1.7-1.5,1.3-2.6C51.5,41,50.4,40.4,49.3,40.7z"/>
			<path fill="none" stroke="#FADB2A" stroke-width="0.5" stroke-miterlimit="10" d="M44.5,57.7c-1.1,0-2,0.9-2,2c0,1.1,0.9,2,2,2
				c1.1,0,2-0.9,2-2S45.6,57.7,44.5,57.7z"/>
			<circle fill="#FFFFFF" stroke="#00A995" stroke-width="0.5" stroke-miterlimit="10" cx="38.8" cy="58.8" r="2"/>
			<circle fill="#FFFFFF" stroke="#EC2991" stroke-width="0.5" stroke-miterlimit="10" cx="29.6" cy="52.1" r="2"/>
			<circle fill="#FFFFFF" stroke="#77C047" stroke-width="0.5" stroke-miterlimit="10" cx="24.7" cy="41" r="2"/>
			<circle fill="#FFFFFF" stroke="#ED7140" stroke-width="0.5" stroke-miterlimit="10" cx="48.8" cy="34.1" r="2"/>
			<circle fill="#FFFFFF" stroke="#ECA021" stroke-width="0.5" stroke-miterlimit="10" cx="38.8" cy="23.8" r="2"/>
			<circle fill="#FFFFFF" stroke="#FADB2A" stroke-width="0.5" stroke-miterlimit="10" cx="50.6" cy="23.5" r="2"/>
		</g>
	</g>
</g>
</svg>
